<svg width="200" height="200" viewBox="0 0 200 200" xmlns="http://www.w3.org/2000/svg" role="img" aria-label="Lumière emblem">
  <defs>
    <linearGradient id="gold" x1="0" y1="0" x2="0" y2="1">
      <stop offset="0" stop-color="#d9b25e"/>
      <stop offset="1" stop-color="#c9a14a"/>
    </linearGradient>
  </defs>

  <!-- Radiant halo: thin rays around the emblem -->
  <g stroke="#c9a14a" stroke-width="2" stroke-linecap="round" fill="none">
    <g transform="translate(100 100)">
      <line x1="0" y1="-78" x2="0" y2="-66"/>
      <line x1="0" y1="-78" x2="0" y2="-66" transform="rotate(30)"/>
      <line x1="0" y1="-78" x2="0" y2="-66" transform="rotate(60)"/>
      <line x1="0" y1="-78" x2="0" y2="-66" transform="rotate(90)"/>
      <line x1="0" y1="-78" x2="0" y2="-66" transform="rotate(120)"/>
      <line x1="0" y1="-78" x2="0" y2="-66" transform="rotate(150)"/>
      <line x1="0" y1="-78" x2="0" y2="-66" transform="rotate(180)"/>
      <line x1="0" y1="-78" x2="0" y2="-66" transform="rotate(210)"/>
      <line x1="0" y1="-78" x2="0" y2="-66" transform="rotate(240)"/>
      <line x1="0" y1="-78" x2="0" y2="-66" transform="rotate(270)"/>
      <line x1="0" y1="-78" x2="0" y2="-66" transform="rotate(300)"/>
      <line x1="0" y1="-78" x2="0" y2="-66" transform="rotate(330)"/>
    </g>
  </g>

  <!-- Thin enclosing ring -->
  <circle cx="100" cy="100" r="56" fill="none" stroke="url(#gold)" stroke-width="2"/>

  <!-- Candle flame at centre -->
  <path d="M100 64
           C112 78 116 90 116 102
           C116 117 109 127 100 127
           C91 127 84 117 84 102
           C84 90 88 78 100 64 Z"
        fill="url(#gold)"/>
  <!-- Inner highlight of flame -->
  <path d="M100 82
           C106 90 108 97 108 104
           C108 113 104 119 100 119
           C96 119 92 113 92 104
           C92 97 94 90 100 82 Z"
        fill="#1a1a1a" opacity="0.85"/>

  <!-- Serif L monogram cradled in the flame -->
  <text x="100" y="116" text-anchor="middle"
        font-family="'Playfair Display', Georgia, serif"
        font-size="34" font-weight="600" fill="#f5f1e8">L</text>
</svg>
